<?xml version="1.0" encoding="UTF-8"?>
<!DOCTYPE svg PUBLIC "-//W3C//DTD SVG 1.1//EN" "http://www.w3.org/Graphics/SVG/1.1/DTD/svg11.dtd">
<!-- Creator: CorelDRAW X5 -->
<svg xmlns="http://www.w3.org/2000/svg" xml:space="preserve" width="3700px" height="500px" style="shape-rendering:geometricPrecision; text-rendering:geometricPrecision; image-rendering:optimizeQuality; fill-rule:evenodd; clip-rule:evenodd"
viewBox="0 0 3700 500"
 xmlns:xlink="http://www.w3.org/1999/xlink">
 <defs>
  <style type="text/css">
   <![CDATA[
    .fil0 {fill:white;fill-rule:nonzero}
   ]]>
  </style>
 </defs>
 <g id="Warstwa_x0020_1">
  <metadata id="CorelCorpID_0Corel-Layer"/>
  <path class="fil0" d="M56 433l0 -365 48 0 0 152 112 -152 68 0 -134 172 151 193 -76 0 -121 -161 0 161 -48 0zm297 0l0 -299 28 0 141 199 0 -199 37 0 0 299 -28 0 -141 -202 0 202 -37 0zm280 0l0 -299 40 0 0 299 -40 0zm277 -244l-126 0 0 187 126 0 0 -64 -66 0 0 -53 106 0 0 103c0,27 -3,46 -9,56 -6,10 -17,15 -34,15l-120 0c-17,0 -28,-5 -34,-15 -6,-10 -9,-29 -9,-56l0 -158c0,-27 3,-46 9,-56 6,-10 17,-15 34,-15l120 0c17,0 28,5 34,15 6,10 9,27 9,52l0 8 -40 12 0 -32zm109 244l0 -299 41 0 0 114 126 0 0 -114 40 0 0 299 -40 0 0 -126 -126 0 0 126 -41 0zm381 -246l0 246 -40 0 0 -246 -80 0 0 -54 201 0 0 54 -80 0zm321 188l134 0 0 -187 -134 0 0 187zm-40 -171c0,-27 3,-46 9,-56 6,-10 17,-15 34,-15l129 0c17,0 29,5 34,15 6,10 9,28 9,56l0 158c0,27 -3,46 -9,56 -6,10 -17,15 -34,15l-129 0c-17,0 -28,-5 -34,-15 -6,-10 -9,-29 -9,-56l0 -158zm285 229l0 -299 176 0 0 54 -135 0 0 78 73 0 0 56 -73 0 0 112 -41 0zm379 -279c0,-33 3,-56 10,-68 7,-12 20,-18 40,-18l149 0c20,0 33,6 40,18 7,12 10,35 10,68l0 193c0,33 -3,56 -10,68 -7,12 -20,18 -40,18l-149 0c-20,0 -33,-6 -40,-18 -7,-12 -10,-35 -10,-68l0 -193zm47 210l156 0 0 -231 -156 0 0 231zm420 -179l-93 0 0 83 93 0c7,0 12,-2 14,-6 3,-4 4,-10 4,-19l0 -34c0,-9 -1,-15 -4,-19 -3,-4 -7,-6 -14,-6zm-132 248l0 -299 150 0c14,0 24,5 30,14 6,9 9,24 9,44l0 70c0,20 -3,35 -9,44 -6,9 -16,13 -30,13l-23 0 79 113 -58 0 -70 -113 -38 0 0 113 -40 0zm296 -56l52 0c28,0 48,-7 60,-22 11,-15 17,-40 17,-76 0,-31 -5,-54 -14,-69 -9,-15 -24,-23 -44,-23l-71 0 0 190zm-41 56l0 -299 112 0c32,0 57,13 74,39 17,26 26,62 26,110 0,50 -9,88 -27,113 -18,25 -46,38 -83,38l-102 0zm273 0l0 -299 178 0 0 53 -137 0 0 65 80 0 0 52 -80 0 0 74 139 0 0 56 -180 0zm371 -248l-93 0 0 83 93 0c7,0 12,-2 14,-6 3,-4 4,-10 4,-19l0 -34c0,-9 -1,-15 -4,-19 -3,-4 -7,-6 -14,-6zm-132 248l0 -299 150 0c14,0 24,5 30,14 6,9 9,24 9,44l0 70c0,20 -3,35 -9,44 -6,9 -16,13 -30,13l-23 0 79 113 -58 0 -70 -113 -38 0 0 113 -40 0z"/>
 </g>
</svg>
